<?xml version="1.0" encoding="utf-8"?>
<!-- Generator: Adobe Illustrator 24.0.0, SVG Export Plug-In . SVG Version: 6.00 Build 0)  -->
<svg version="1.1" id="Capa_1" xmlns="http://www.w3.org/2000/svg" xmlns:xlink="http://www.w3.org/1999/xlink" x="0px" y="0px"
	 viewBox="0 0 1435.5 205.6" style="enable-background:new 0 0 1435.5 205.6;" xml:space="preserve">
<style type="text/css">
	.st0{fill:#FF9500;}
</style>
<title>section1-frontend</title>
<g id="Capa_2_1_">
	<g id="Capa_1-2">
		<g>
			<path class="st0" d="M53,205.6H0V3.6h119v44H53v38h61v44H53V205.6z"/>
			<path class="st0" d="M193,132.6v73h-55V3.6h66.7c55.3,0,83,19.9,83,59.7c0,23.4-11.5,41.5-34.5,54.3l59.3,88h-63.2l-42.5-73H193z
				 M193,91.6h10.2c19,0,28.5-8.4,28.5-25.2c0-13.9-9.3-20.8-28-20.8H193V91.6z"/>
			<path class="st0" d="M504.4,104.5c0,34-8.3,59.8-25,77.5c-16.7,17.7-41.1,26.5-73.2,26.5c-31.7,0-56-8.9-72.9-26.7
				c-16.9-17.8-25.3-43.6-25.3-77.6c0-33.6,8.4-59.3,25.2-77C350,9.5,374.4,0.6,406.5,0.6c32.1,0,56.5,8.8,73.1,26.4
				C496.1,44.6,504.4,70.4,504.4,104.5z M365.5,104.5c0,39,13.6,58.6,40.7,58.6c13.8,0,24.1-4.7,30.7-14.2c6.7-9.5,10-24.3,10-44.3
				c0-20.2-3.4-35.1-10.2-44.7c-6.8-9.6-16.9-14.4-30.3-14.4C379.1,45.4,365.5,65.1,365.5,104.5L365.5,104.5z"/>
			<path class="st0" d="M719,205.6h-72.1l-73.2-142h-1.2c1.7,22.3,2.6,39.4,2.6,51.1v90.9h-48V3.6h71.4l73.7,140h0.8
				c-1.3-20.3-1.9-36.6-1.9-48.9V3.6h48V205.6z"/>
			<path class="st0" d="M838,205.6h-55v-157h-49v-45h153v45h-49V205.6z"/>
			<path class="st0" d="M1021,205.6H901V3.6h120v44h-65v32h60v44h-60v38h65V205.6z"/>
			<path class="st0" d="M1235,205.6h-70.6l-74.8-142h-1.3c1.8,22.3,2.7,39.4,2.7,51.1v90.9h-49V3.6h71.4l73.7,140h0.8
				c-1.3-20.3-1.9-36.6-1.9-48.9V3.6h49V205.6z"/>
			<path class="st0" d="M1435.5,100.3c0,33.7-9.3,59.7-27.8,77.9c-18.6,18.2-44.7,27.4-78.3,27.4H1264V3.6h69.9
				c32.4,0,57.5,8.3,75.1,24.9C1426.6,45.1,1435.5,69,1435.5,100.3z M1379.2,102.1c0-18.5-3.7-32.2-11-41.1
				c-7.3-8.9-18.4-13.4-33.3-13.4H1319v113h12.1c16.6,0,28.7-4.8,36.4-14.4C1375.3,136.6,1379.2,121.9,1379.2,102.1L1379.2,102.1z"
				/>
		</g>
	</g>
</g>
</svg>
