<svg xmlns="http://www.w3.org/2000/svg" width="11.72706" height="10.47757" viewBox="0 0 11.72706 10.47757">
  <title>flower</title>
  <g id="Capa_2" data-name="Capa 2">
    <g id="Capa_1-2" data-name="Capa 1">
      <path d="M3.53516,10.471a1.207,1.207,0,0,1-.96875-1.92969L5.49805,5.61163a.42558.42558,0,0,1-.14062-.23047L1.666,6.36157l-.30078.08013A1.20211,1.20211,0,0,1,.166,5.84112,1.19759,1.19759,0,0,1,.60547,4.1917a1.231,1.231,0,0,1,.72071-.16015h.00976l.36914.09961.02149.00976.01953.01075.01953.00976,3.5918.9502a.448.448,0,0,1,.14062-.24024L2.57618,1.95147c-.03125-.0498-.06055-.08984-.08985-.13965a1.21166,1.21166,0,0,1,2.09961-1.21,1.03107,1.03107,0,0,1,.07032.14941V.761l.08984.33008v.03027l.00977.01953.9707,3.59082a.63534.63534,0,0,1,.14062-.0205.62269.62269,0,0,1,.13965.0205l.98-3.68066L7.0669.75127A1.0271,1.0271,0,0,1,7.13672.60186,1.22128,1.22128,0,0,1,8.79688.16143a1.19884,1.19884,0,0,1,.43994,1.65039c-.02978.04981-.06006.08985-.08984.13965l-.11035.12012L6.23682,4.87139a.4235.4235,0,0,1,.14014.23047l3.66992-.98047.31006-.08984h.02a.62693.62693,0,0,1,.13965-.00977,1.21485,1.21485,0,0,1,0,2.42969.8247.8247,0,0,1-.15967-.00977h-.02l-.02-.01074-.21-.05957-.06006-.01953L6.377,5.38116a.43058.43058,0,0,1-.14014.23047l2.73,2.72943.14991.15045a1.20709,1.20709,0,0,1-1.52979,1.82025,1.21969,1.21969,0,0,1-.52-.58008V9.721l-.08008-.2998-.98-3.66993a.6837.6837,0,0,1-.13965.02051.69807.69807,0,0,1-.14062-.02051l-1,3.69043v.04l-.07031.25A1.2184,1.2184,0,0,1,3.53516,10.471Z"/>
    </g>
  </g>
</svg>
