<svg xmlns="http://www.w3.org/2000/svg" width="1212" height="180.5" viewBox="0 0 1212 180.5">
  <defs>
    <style>
      .cls-1, .cls-2, .cls-3 {
        fill: none;
        stroke: #000;
      }

      .cls-1, .cls-3 {
        stroke-linecap: round;
        stroke-linejoin: round;
      }

      .cls-2 {
        stroke-miterlimit: 10;
      }

      .cls-3 {
        stroke-width: 2px;
      }
    </style>
  </defs>
  <title>section1-bottom-lines</title>
  <g id="Capa_2" data-name="Capa 2">
    <g id="Capa_1-2" data-name="Capa 1">
      <g>
        <g>
          <line class="cls-1" x1="48.5" y1="28.5" x2="48.5" y2="144.33459"/>
          <path d="M46.17188,149.49341a1.207,1.207,0,0,1-.96875-1.92969l2.93164-2.92969a.42546.42546,0,0,1-.14063-.23047l-3.69141.98041-.30078.08014a1.21253,1.21253,0,0,1-.75976-2.25,1.231,1.231,0,0,1,.7207-.16015h.00977l.36914.0996.02148.00977.01953.01074.01953.00977,3.5918.95019a.448.448,0,0,1,.14063-.24023l-2.92188-2.91992c-.03125-.04981-.06055-.08985-.08984-.13965a1.21166,1.21166,0,0,1,2.09961-1.21,1.03049,1.03049,0,0,1,.07031.14941v.00977l.08984.33008v.03027l.00977.01953.9707,3.59082a.63544.63544,0,0,1,.14063-.02051.62271.62271,0,0,1,.13964.02051l.98-3.68066.08007-.29981a1.02565,1.02565,0,0,1,.06983-.14941,1.22126,1.22126,0,0,1,1.66015-.44043,1.19885,1.19885,0,0,1,.43995,1.65039c-.02979.0498-.06006.08984-.08985.13965l-.11035.12011-2.7998,2.79981a.42354.42354,0,0,1,.14013.23047l3.66992-.98047.31006-.08984h.02a.627.627,0,0,1,.13965-.00977,1.21485,1.21485,0,0,1,0,2.42969.82476.82476,0,0,1-.15967-.00977h-.02l-.02-.01074-.21-.05957-.06006-.01953-3.66992-.97071a.43055.43055,0,0,1-.14013.23047l2.73,2.72943.1499.15046a1.20709,1.20709,0,0,1-1.52979,1.82025,1.21973,1.21973,0,0,1-.52-.58008v-.01068l-.08007-.29981-.98-3.66992a.68371.68371,0,0,1-.13964.02051.69816.69816,0,0,1-.14063-.02051l-1,3.69043v.04l-.07031.25A1.21839,1.21839,0,0,1,46.17188,149.49341Z"/>
        </g>
        <g>
          <line class="cls-2" y1="46.5" x2="1205.96484" y2="46.5"/>
          <path d="M1212,46.5a30.22134,30.22134,0,0,0-8.54736,4.75586L1205.17285,46.5l-1.72021-4.75488A30.195,30.195,0,0,0,1212,46.5Z"/>
        </g>
        <rect x="49" y="47" width="57" height="11"/>
        <g>
          <line class="cls-1" x1="540.5" y1="46.5" x2="540.5" y2="176.92822"/>
          <circle cx="540.5" cy="176.74023" r="3.75977"/>
        </g>
        <circle class="cls-3" cx="539.5" cy="45.5" r="44.5"/>
      </g>
    </g>
  </g>
</svg>
