<svg xmlns="http://www.w3.org/2000/svg" width="200.09653" height="160.31946" viewBox="0 0 200.09653 160.31946">
  <defs>
    <style>
      .cls-1, .cls-10, .cls-11, .cls-12, .cls-13, .cls-14, .cls-15, .cls-16, .cls-17, .cls-18, .cls-19, .cls-2, .cls-20, .cls-21, .cls-22, .cls-23, .cls-24, .cls-25, .cls-26, .cls-27, .cls-28, .cls-29, .cls-3, .cls-30, .cls-31, .cls-32, .cls-33, .cls-34, .cls-35, .cls-36, .cls-37, .cls-38, .cls-39, .cls-4, .cls-40, .cls-41, .cls-42, .cls-43, .cls-44, .cls-45, .cls-46, .cls-47, .cls-48, .cls-49, .cls-5, .cls-50, .cls-51, .cls-52, .cls-53, .cls-54, .cls-55, .cls-56, .cls-57, .cls-58, .cls-59, .cls-6, .cls-60, .cls-61, .cls-62, .cls-63, .cls-64, .cls-65, .cls-66, .cls-67, .cls-68, .cls-69, .cls-7, .cls-70, .cls-71, .cls-72, .cls-73, .cls-74, .cls-75, .cls-76, .cls-77, .cls-78, .cls-79, .cls-8, .cls-80, .cls-81, .cls-82, .cls-83, .cls-84, .cls-85, .cls-86, .cls-87, .cls-88, .cls-89, .cls-9, .cls-90, .cls-91, .cls-92, .cls-93, .cls-94 {
        fill-rule: evenodd;
        isolation: isolate;
      }

      .cls-1 {
        opacity: 0.667;
      }

      .cls-2 {
        opacity: 0.67;
      }

      .cls-3 {
        opacity: 0.64;
      }

      .cls-4 {
        opacity: 0.682;
      }

      .cls-5 {
        opacity: 0.719;
      }

      .cls-6 {
        opacity: 0.697;
      }

      .cls-7 {
        opacity: 0.727;
      }

      .cls-8 {
        opacity: 0.651;
      }

      .cls-9 {
        opacity: 0.668;
      }

      .cls-10 {
        opacity: 0.705;
      }

      .cls-11 {
        opacity: 0.624;
      }

      .cls-12 {
        opacity: 0.659;
      }

      .cls-13 {
        opacity: 0.673;
      }

      .cls-14 {
        opacity: 0.637;
      }

      .cls-15 {
        opacity: 0.678;
      }

      .cls-16 {
        opacity: 0.662;
      }

      .cls-17 {
        opacity: 0.661;
      }

      .cls-18 {
        opacity: 0.696;
      }

      .cls-19 {
        opacity: 0.712;
      }

      .cls-20 {
        opacity: 0.633;
      }

      .cls-21 {
        opacity: 0.707;
      }

      .cls-22 {
        opacity: 0.693;
      }

      .cls-23 {
        opacity: 0.688;
      }

      .cls-24 {
        opacity: 0.72;
      }

      .cls-25 {
        opacity: 0.692;
      }

      .cls-26 {
        opacity: 0.686;
      }

      .cls-27 {
        opacity: 0.639;
      }

      .cls-28 {
        opacity: 0.684;
      }

      .cls-29 {
        opacity: 0.689;
      }

      .cls-30 {
        opacity: 0.642;
      }

      .cls-31 {
        opacity: 0.674;
      }

      .cls-32 {
        opacity: 0.748;
      }

      .cls-33 {
        opacity: 0.704;
      }

      .cls-34 {
        opacity: 0.701;
      }

      .cls-35 {
        opacity: 0.703;
      }

      .cls-36 {
        opacity: 0.666;
      }

      .cls-37 {
        opacity: 0.699;
      }

      .cls-38 {
        opacity: 0.685;
      }

      .cls-39 {
        opacity: 0.656;
      }

      .cls-40 {
        opacity: 0.724;
      }

      .cls-41 {
        opacity: 0.645;
      }

      .cls-42 {
        opacity: 0.531;
      }

      .cls-43 {
        opacity: 0.602;
      }

      .cls-44 {
        opacity: 0.53;
      }

      .cls-45 {
        opacity: 0.583;
      }

      .cls-46 {
        opacity: 0.578;
      }

      .cls-47 {
        opacity: 0.664;
      }

      .cls-48 {
        opacity: 0.714;
      }

      .cls-49 {
        opacity: 0.635;
      }

      .cls-50 {
        opacity: 0.683;
      }

      .cls-51 {
        opacity: 0.626;
      }

      .cls-52 {
        opacity: 0.675;
      }

      .cls-53 {
        opacity: 0.728;
      }

      .cls-54 {
        fill: #ff9500;
        opacity: 0.909;
      }

      .cls-55 {
        opacity: 0.706;
      }

      .cls-56 {
        opacity: 0.612;
      }

      .cls-57 {
        opacity: 0.65;
      }

      .cls-58 {
        opacity: 0.597;
      }

      .cls-59 {
        opacity: 0.676;
      }

      .cls-60 {
        opacity: 0.655;
      }

      .cls-61 {
        opacity: 0.731;
      }

      .cls-62 {
        opacity: 0.717;
      }

      .cls-63 {
        opacity: 0.736;
      }

      .cls-64 {
        opacity: 0.715;
      }

      .cls-65 {
        opacity: 0.709;
      }

      .cls-66 {
        opacity: 0.619;
      }

      .cls-67 {
        opacity: 0.713;
      }

      .cls-68 {
        opacity: 0.58;
      }

      .cls-69 {
        opacity: 0.672;
      }

      .cls-70 {
        opacity: 0.732;
      }

      .cls-71 {
        opacity: 0.729;
      }

      .cls-72 {
        opacity: 0.721;
      }

      .cls-73 {
        opacity: 0.742;
      }

      .cls-74 {
        opacity: 0.617;
      }

      .cls-75 {
        opacity: 0.652;
      }

      .cls-76 {
        opacity: 0.774;
      }

      .cls-77 {
        opacity: 0.669;
      }

      .cls-78 {
        opacity: 0.763;
      }

      .cls-79 {
        opacity: 0.744;
      }

      .cls-80 {
        opacity: 0.663;
      }

      .cls-81 {
        opacity: 0.71;
      }

      .cls-82 {
        opacity: 0.677;
      }

      .cls-83 {
        opacity: 0.606;
      }

      .cls-84 {
        opacity: 0.622;
      }

      .cls-85 {
        opacity: 0.644;
      }

      .cls-86 {
        opacity: 0.665;
      }

      .cls-87 {
        opacity: 0.711;
      }

      .cls-88 {
        opacity: 0.766;
      }

      .cls-89 {
        opacity: 0.631;
      }

      .cls-90 {
        opacity: 0.7;
      }

      .cls-91 {
        opacity: 0.648;
      }

      .cls-92 {
        opacity: 0.647;
      }

      .cls-93 {
        opacity: 0.646;
      }

      .cls-94 {
        opacity: 0.687;
      }
    </style>
  </defs>
  <title>section1-wheel-inner</title>
  <g id="Capa_2" data-name="Capa 2">
    <g id="Capa_2-2" data-name="Capa 2">
      <g>
        <path class="cls-1" d="M125.62451.04593a24.40135,24.40135,0,0,1,6.01795.37612,2.74334,2.74334,0,0,1,.75224,1.12836,8.4405,8.4405,0,0,1-6.01794.37612A2.14932,2.14932,0,0,1,125.62451.04593Z"/>
        <path class="cls-2" d="M103.05724.79817h3.009V3.0549a10.35009,10.35009,0,0,1-6.77019,0A8.91154,8.91154,0,0,1,103.05724.79817Z"/>
        <path class="cls-3" d="M135.40367.79817a41.32884,41.32884,0,0,1,5.2657,1.50449,2.327,2.327,0,0,1,.75224,2.25672,26.45717,26.45717,0,0,1-6.01794-1.50448A1.36122,1.36122,0,0,1,135.40367.79817Z"/>
        <path class="cls-4" d="M94.78257,3.0549a3.30389,3.30389,0,0,1,3.009,1.12836,40.01487,40.01487,0,0,1-5.64182,2.63285,3.35366,3.35366,0,0,1-1.12836-1.50448A23.76819,23.76819,0,0,1,94.78257,3.0549Z"/>
        <path class="cls-5" d="M143.67834,3.80714a7.55525,7.55525,0,0,1,6.01794,2.25673,3.35361,3.35361,0,0,1-1.12837,1.50448q-2.04912-.936-4.13733-1.8806A2.14934,2.14934,0,0,1,143.67834,3.80714Z"/>
        <path class="cls-6" d="M86.5079,6.06387a3.65186,3.65186,0,0,1,3.009.75224,5.896,5.896,0,0,1-6.77018,2.25673A17.85042,17.85042,0,0,1,86.5079,6.06387Z"/>
        <path class="cls-7" d="M151.953,6.81611a8.74584,8.74584,0,0,1,6.01794,3.009,4.65383,4.65383,0,0,1-5.2657-.75224A2.327,2.327,0,0,1,151.953,6.81611Z"/>
        <path class="cls-8" d="M78.98547,9.82508H81.2422q-.69393,3.87424-4.88958,4.51346-1.41834-.39482-.75224-1.50449A24.50787,24.50787,0,0,0,78.98547,9.82508Z"/>
        <path class="cls-9" d="M160.22767,10.57732a29.07856,29.07856,0,0,1,4.88958,3.009A1.61935,1.61935,0,0,1,164.365,15.843q-2.25674-1.50444-4.51346-3.009A1.99111,1.99111,0,0,1,160.22767,10.57732Z"/>
        <path class="cls-10" d="M115.09312,11.32957a1.217,1.217,0,0,1,.75224,1.50448,8.156,8.156,0,0,1-6.77018,0,2.74324,2.74324,0,0,1,.75224-1.12836A18.75978,18.75978,0,0,1,115.09312,11.32957Z"/>
        <path class="cls-11" d="M121.11106,11.32957a5.349,5.349,0,0,1,3.76121.75224,5.76062,5.76062,0,0,1-6.77018.75224Q119.6062,12.08177,121.11106,11.32957Z"/>
        <path class="cls-12" d="M127.129,11.32957a18.50937,18.50937,0,0,1,6.77018,1.8806,5.54653,5.54653,0,0,1-5.26569.75225A2.45921,2.45921,0,0,1,127.129,11.32957Z"/>
        <path class="cls-13" d="M104.56172,12.08181h2.25673a2.327,2.327,0,0,1-.75224,2.25673q-2.25674.75228-4.51346,1.50448a1.51383,1.51383,0,0,1-.37612-2.25672A27.28987,27.28987,0,0,0,104.56172,12.08181Z"/>
        <path class="cls-14" d="M136.15591,12.83405a10.22519,10.22519,0,0,1,6.01794,3.009,8.187,8.187,0,0,1-6.01794-.37612A1.63109,1.63109,0,0,1,136.15591,12.83405Z"/>
        <path class="cls-15" d="M72.21529,14.33854q1.94643.38646,1.12836,2.25673a9.46451,9.46451,0,0,1-4.88957,2.63284q-.37577-.37608-.75225-.75224A34.20666,34.20666,0,0,1,72.21529,14.33854Z"/>
        <path class="cls-9" d="M95.53481,15.09078a3.65186,3.65186,0,0,1,3.009.75224,17.77185,17.77185,0,0,1-5.2657,3.009,3.34835,3.34835,0,0,1-1.50448-1.12836A9.52587,9.52587,0,0,1,95.53481,15.09078Z"/>
        <path class="cls-16" d="M144.43058,15.843a12.05826,12.05826,0,0,1,6.01794,3.38509l-1.12836,1.12837a45.70307,45.70307,0,0,0-4.88958-2.63285Q143.19164,16.85513,144.43058,15.843Z"/>
        <path class="cls-17" d="M88.01238,18.09975h2.25673a2.327,2.327,0,0,1-.75224,2.25673,13.48716,13.48716,0,0,1-5.2657,2.25673,2.327,2.327,0,0,1,.75224-2.25673A5.16331,5.16331,0,0,0,88.01238,18.09975Z"/>
        <path class="cls-18" d="M157.97095,23.36545a.66479.66479,0,0,1-.75225.75224,5.68955,5.68955,0,0,1-4.88957-3.76121,1.25266,1.25266,0,0,1,1.8806-.37612A8.614,8.614,0,0,1,157.97095,23.36545Z"/>
        <path class="cls-19" d="M173.768,21.861a13.81574,13.81574,0,0,1,5.2657,4.13734,1.61969,1.61969,0,0,1-2.25673.75224q-1.881-1.88064-3.76121-3.76121A1.69808,1.69808,0,0,0,173.768,21.861Z"/>
        <path class="cls-20" d="M80.49,22.61321h2.25673a9.9571,9.9571,0,0,1-4.88958,5.26569,3.35366,3.35366,0,0,1-1.12836-1.50448A22.50547,22.50547,0,0,1,80.49,22.61321Z"/>
        <path class="cls-21" d="M113.58863,23.36545h6.01794v2.25673a24.40176,24.40176,0,0,1-6.01794-.37612Q112.34971,24.37756,113.58863,23.36545Z"/>
        <path class="cls-22" d="M121.8633,23.36545a24.40173,24.40173,0,0,1,6.01794.37612,2.74326,2.74326,0,0,1,.75225,1.12836,8.44058,8.44058,0,0,1-6.01795.37613A2.14937,2.14937,0,0,1,121.8633,23.36545Z"/>
        <path class="cls-23" d="M107.57069,24.11769a4.436,4.436,0,0,1,3.76122,1.12837,10.0937,10.0937,0,0,1-6.77019,1.8806V24.86993A3.469,3.469,0,0,0,107.57069,24.11769Z"/>
        <path class="cls-24" d="M130.89021,24.86993a10.09371,10.09371,0,0,1,6.77019,1.88061,2.58217,2.58217,0,0,1-1.88061,1.12836q-2.04346-.65208-4.13733-1.12836A2.14933,2.14933,0,0,1,130.89021,24.86993Z"/>
        <path class="cls-25" d="M99.296,26.37442a3.65185,3.65185,0,0,1,3.009.75224,9.49911,9.49911,0,0,1-5.26569,3.009,1.51383,1.51383,0,0,1-.37613-2.25673A14.75865,14.75865,0,0,0,99.296,26.37442Z"/>
        <path class="cls-20" d="M162.4844,25.62218a5.63617,5.63617,0,0,0,2.63285,2.25672q.56418,2.44483-1.8806,1.88061a11.05532,11.05532,0,0,1-2.25673-2.63285A2.26009,2.26009,0,0,1,162.4844,25.62218Z"/>
        <path class="cls-26" d="M139.91712,27.12666a8.74588,8.74588,0,0,1,6.01795,3.009,6.38271,6.38271,0,0,1-6.77019-1.8806A1.69808,1.69808,0,0,0,139.91712,27.12666Z"/>
        <path class="cls-27" d="M73.71978,27.8789q2.4666.012,1.8806,2.25673Q66.31621,36.084,73.71978,27.8789Z"/>
        <path class="cls-28" d="M180.53823,27.8789q3.97974,2.34521,3.38509,6.01795a8.99742,8.99742,0,0,1-4.13734-4.51346Q180.19559,28.61215,180.53823,27.8789Z"/>
        <path class="cls-29" d="M92.52584,29.38339q2.94051,1.52318,0,3.38509a3.79409,3.79409,0,0,1-4.51346.37612Q90.30409,31.25493,92.52584,29.38339Z"/>
        <path class="cls-30" d="M147.43955,30.88788a13.04772,13.04772,0,0,1,5.2657,2.63284q1.44882,1.46406-.37612,2.63285-2.06831-1.31646-4.13734-2.63285A3.30176,3.30176,0,0,1,147.43955,30.88788Z"/>
        <path class="cls-23" d="M166.24562,30.88788a5.8779,5.8779,0,0,1,5.26569,5.26569A9.0851,9.0851,0,0,1,166.24562,30.88788Z"/>
        <path class="cls-31" d="M53.40922,33.89685A2.53374,2.53374,0,0,1,55.666,35.02521a51.03638,51.03638,0,0,1-3.76121,4.88958,2.26014,2.26014,0,0,1-1.50449-1.50449Q51.91677,36.1213,53.40922,33.89685Z"/>
        <path class="cls-32" d="M66.94959,34.64909h2.25673a6.78585,6.78585,0,0,1-3.76121,5.2657q-.37577-.56418-.75225-1.12837A18.9533,18.9533,0,0,0,66.94959,34.64909Z"/>
        <path class="cls-33" d="M85.00341,34.64909q1.94644.38646,1.12837,2.25673-1.881,1.50444-3.76121,3.009A3.35369,3.35369,0,0,1,81.2422,38.4103,13.42246,13.42246,0,0,1,85.00341,34.64909Z"/>
        <path class="cls-16" d="M185.05168,35.40133a2.32748,2.32748,0,0,1,2.25673.75224,14.22772,14.22772,0,0,0,2.25673,3.76122,2.74326,2.74326,0,0,1-.75225,1.12836Q185.20553,39.732,185.05168,35.40133Z"/>
        <path class="cls-34" d="M154.962,36.15357a25.31588,25.31588,0,0,0,4.13733,3.009,1.51383,1.51383,0,0,1-.37612,2.25673Q154.32372,40.10226,154.962,36.15357Z"/>
        <path class="cls-35" d="M173.0158,36.90582a6.86848,6.86848,0,0,1,3.76121,5.64182Q171.94424,41.66864,173.0158,36.90582Z"/>
        <path class="cls-36" d="M78.23323,40.667q2.09313-.25726,1.88061,1.50448a9.13184,9.13184,0,0,0-2.63285,3.3851,3.71167,3.71167,0,0,1-2.25673.37612A8.50842,8.50842,0,0,1,78.23323,40.667Z"/>
        <path class="cls-37" d="M48.89577,41.41927a2.53241,2.53241,0,0,1,2.25673,1.12837A32.8891,32.8891,0,0,0,48.89577,46.685a2.327,2.327,0,0,1-2.25673.75224A15.445,15.445,0,0,1,48.89577,41.41927Z"/>
        <path class="cls-38" d="M62.43614,41.41927a1.43374,1.43374,0,0,1,1.50448,1.12837,9.86531,9.86531,0,0,1-3.009,4.88957,3.35265,3.35265,0,0,1-1.50448-1.12836A46.86948,46.86948,0,0,1,62.43614,41.41927Z"/>
        <path class="cls-23" d="M160.97992,42.17151a2.94991,2.94991,0,0,1,2.63285,1.50449,8.67444,8.67444,0,0,0,2.63285,3.38509q-2.51286,2.07055-4.13734-1.12836A6.61712,6.61712,0,0,1,160.97992,42.17151Z"/>
        <path class="cls-39" d="M189.56514,42.92376a4.74628,4.74628,0,0,1,3.38509,3.76121,2.31046,2.31046,0,0,1-.75224,3.009A10.08915,10.08915,0,0,1,189.56514,42.92376Z"/>
        <path class="cls-40" d="M177.52925,44.42824a6.63611,6.63611,0,0,1,3.76122,6.01794,2.327,2.327,0,0,1-2.25673-.75224A6.836,6.836,0,0,1,177.52925,44.42824Z"/>
        <path class="cls-13" d="M72.96753,47.43721A1.43374,1.43374,0,0,1,74.472,48.56558a9.86539,9.86539,0,0,1-3.009,4.88957,2.25963,2.25963,0,0,1-1.50449-1.50448Q71.47508,49.66122,72.96753,47.43721Z"/>
        <path class="cls-41" d="M45.13456,49.69394a8.85,8.85,0,0,1,5.26569,2.25673,26.5223,26.5223,0,0,0-6.39406,3.76121q-.56418-.37575-1.12836-.75224A14.40562,14.40562,0,0,1,45.13456,49.69394Z"/>
        <path class="cls-21" d="M166.24562,49.69394a7.18764,7.18764,0,0,1,4.51345,4.88958q-1.169,1.82455-2.63285.37612A11.60347,11.60347,0,0,1,166.24562,49.69394Z"/>
        <path class="cls-42" d="M.75224,50.44618a18.75755,18.75755,0,0,1,5.2657.37612q1.4838,1.57407-.75224,2.25673a6.95491,6.95491,0,0,1-4.51346,0A1.63108,1.63108,0,0,1,.75224,50.44618Z"/>
        <path class="cls-43" d="M9.77915,50.44618a13.88164,13.88164,0,0,1,4.51346.37612q1.50409,1.12838,0,2.25673a6.95491,6.95491,0,0,1-4.51346,0A1.63108,1.63108,0,0,1,9.77915,50.44618Z"/>
        <path class="cls-44" d="M18.05382,50.44618a18.75755,18.75755,0,0,1,5.2657.37612q1.50409,1.12838,0,2.25673a6.22556,6.22556,0,0,1-6.01794-1.12836Q17.71118,51.18,18.05382,50.44618Z"/>
        <path class="cls-45" d="M57.17044,50.44618a4.37131,4.37131,0,0,1-1.50449,3.009q-3.604.36559-2.25673-2.63285A9.7262,9.7262,0,0,1,57.17044,50.44618Z"/>
        <path class="cls-46" d="M61.68389,50.44618a18.75752,18.75752,0,0,1,5.2657.37612q1.50413,1.12838,0,2.25673a6.95488,6.95488,0,0,1-4.51345,0A3.30159,3.30159,0,0,1,61.68389,50.44618Z"/>
        <path class="cls-47" d="M192.57411,51.19843a2.45931,2.45931,0,0,1,2.63285,1.50448,4.22252,4.22252,0,0,1,0,5.2657A22.23339,22.23339,0,0,1,192.57411,51.19843Z"/>
        <path class="cls-48" d="M55.666,53.45515a4.37131,4.37131,0,0,0,1.50449-3.009,2.15512,2.15512,0,0,1,2.25673-.75224,6.82611,6.82611,0,0,1-2.63285,6.01794A2.53246,2.53246,0,0,1,55.666,53.45515Z"/>
        <path class="cls-15" d="M181.29047,52.70291a2.57813,2.57813,0,0,1,2.63285,2.25673,21.764,21.764,0,0,0,1.12836,3.009,1.59485,1.59485,0,0,1-2.63285,0,10.86524,10.86524,0,0,0-1.8806-4.13734A1.69951,1.69951,0,0,0,181.29047,52.70291Z"/>
        <path class="cls-25" d="M67.70183,55.71188h2.25673a11.06685,11.06685,0,0,1-2.25673,6.01794,2.25963,2.25963,0,0,1-1.50448-1.50448A23.85229,23.85229,0,0,0,67.70183,55.71188Z"/>
        <path class="cls-9" d="M54.91371,57.21637a2.25916,2.25916,0,0,1,1.50449,1.50448,34.27949,34.27949,0,0,1-2.25673,5.2657A2.25962,2.25962,0,0,1,52.657,62.48206,33.61439,33.61439,0,0,1,54.91371,57.21637Z"/>
        <path class="cls-49" d="M42.12559,57.96861A2.53244,2.53244,0,0,1,44.38231,59.097a15.09852,15.09852,0,0,1-2.63285,5.64182A7.07383,7.07383,0,0,1,42.12559,57.96861Z"/>
        <path class="cls-25" d="M170.00683,57.96861q4.09821,1.39128,3.76121,6.01794h-2.25673Q170.7587,60.97721,170.00683,57.96861Z"/>
        <path class="cls-50" d="M196.33532,59.47309a5.67808,5.67808,0,0,1,1.50449,6.77019A5.66023,5.66023,0,0,1,196.33532,59.47309Z"/>
        <path class="cls-47" d="M184.29944,60.97758a1.37465,1.37465,0,0,1,1.50448.75224q.75261,2.25674,1.50449,4.51346A3.3528,3.3528,0,0,1,186.18,67.74776,7.96219,7.96219,0,0,1,184.29944,60.97758Z"/>
        <path class="cls-51" d="M65.44511,63.23431a1.65849,1.65849,0,0,1,1.50448,1.50448,16.05016,16.05016,0,0,0-.75224,5.2657H63.94062A13.7779,13.7779,0,0,1,65.44511,63.23431Z"/>
        <path class="cls-52" d="M52.657,65.491a2.42831,2.42831,0,0,1,1.50449,2.63284,35.73131,35.73131,0,0,0-.75225,4.13734H51.1525A13.77776,13.77776,0,0,1,52.657,65.491Z"/>
        <path class="cls-53" d="M40.6211,66.24328a3.34229,3.34229,0,0,1,1.50449,3.38509,3.38958,3.38958,0,0,1-1.50449,3.38509A8.533,8.533,0,0,1,40.6211,66.24328Z"/>
        <path class="cls-4" d="M173.0158,66.24328h2.25673a11.956,11.956,0,0,0,.75224,4.88957,2.58176,2.58176,0,0,1-1.12836,1.88061A10.0949,10.0949,0,0,1,173.0158,66.24328Z"/>
        <path class="cls-54" d="M127.88124,67.74776a9.93065,9.93065,0,0,1,6.01794,4.13734q-8.80348,9.933-18.42994,19.18218-6.01758-6.01755-12.03588-12.03588a1.87988,1.87988,0,0,1,0-2.25673q1.872-1.50185,3.76121-3.009,3.70554,3.8906,7.89855,7.52243A81.28854,81.28854,0,0,0,127.88124,67.74776Z"/>
        <path class="cls-30" d="M197.08756,68.5h2.25673a11.95621,11.95621,0,0,0,.75224,4.88957,2.00769,2.00769,0,0,1-1.50448,1.88061A11.04512,11.04512,0,0,1,197.08756,68.5Z"/>
        <path class="cls-55" d="M186.55617,69.25225a1.69944,1.69944,0,0,1,1.12836.75224,20.06194,20.06194,0,0,0,1.12836,4.88958q-3.446,2.23414-3.009-2.25673A11.05172,11.05172,0,0,1,186.55617,69.25225Z"/>
        <path class="cls-56" d="M63.18838,72.26122h2.25673a11.0451,11.0451,0,0,1-1.50449,6.77018,2.116,2.116,0,0,1-1.50448-2.25673A14.32832,14.32832,0,0,0,63.18838,72.26122Z"/>
        <path class="cls-10" d="M52.657,81.28813H50.40025a24.41926,24.41926,0,0,1,.37613-6.01794,2.743,2.743,0,0,1,1.12836-.75224A15.893,15.893,0,0,1,52.657,81.28813Z"/>
        <path class="cls-57" d="M173.768,75.27019a3.30165,3.30165,0,0,1,2.63285.75224,27.25566,27.25566,0,0,1,0,9.02691q-1.74333,1.49056-2.63285-.75224A14.6838,14.6838,0,0,0,173.768,75.27019Z"/>
        <path class="cls-58" d="M188.81289,80.53589q-1.12836,1.5041-2.25672,0Q187.39793,76.23681,188.81289,80.53589Z"/>
        <path class="cls-59" d="M63.18838,81.28813a4.348,4.348,0,0,1,2.25673,4.13733,3.49111,3.49111,0,0,1-1.12837,2.63285A7.5023,7.5023,0,0,1,63.18838,81.28813Z"/>
        <path class="cls-60" d="M51.1525,85.80159h2.25672V90.315H51.1525Z"/>
        <path class="cls-61" d="M173.768,88.05831a2.327,2.327,0,0,1,2.25673.75225,10.43567,10.43567,0,0,1-2.25673,5.26569A7.51693,7.51693,0,0,1,173.768,88.05831Z"/>
        <path class="cls-62" d="M185.80392,88.05831h2.25673a31.24958,31.24958,0,0,1-.75224,6.01794h-2.25673Q185.42743,91.06691,185.80392,88.05831Z"/>
        <path class="cls-63" d="M197.83981,88.05831a2.53243,2.53243,0,0,1,2.25672,1.12837,9.18052,9.18052,0,0,0-.75224,4.88957h-2.25673A14.60274,14.60274,0,0,1,197.83981,88.05831Z"/>
        <path class="cls-36" d="M63.94062,89.5628a2.14946,2.14946,0,0,1,1.88061.75224q.47616,2.09311,1.12836,4.13734a2.00769,2.00769,0,0,1-1.50448,1.8806A11.0451,11.0451,0,0,1,63.94062,89.5628Z"/>
        <path class="cls-64" d="M51.90474,92.57177h2.25673Q54.59814,106.03088,51.90474,92.57177Z"/>
        <path class="cls-65" d="M40.6211,93.324h2.25673a31.24879,31.24879,0,0,0,.75224,6.01794,2.327,2.327,0,0,1-2.25673-.75224A11.59817,11.59817,0,0,1,40.6211,93.324Z"/>
        <path class="cls-2" d="M171.51131,96.333a2.06435,2.06435,0,0,1,2.25673,1.50449q-1.21524,2.72162-2.63285,5.2657a2.58175,2.58175,0,0,1-1.12836-1.88061Q170.88016,98.79205,171.51131,96.333Z"/>
        <path class="cls-3" d="M184.29944,96.333a2.53242,2.53242,0,0,1,2.25673,1.12837,18.77357,18.77357,0,0,0-1.50449,5.64182H182.795A25.34434,25.34434,0,0,1,184.29944,96.333Z"/>
        <path class="cls-66" d="M196.33532,96.333a2.06435,2.06435,0,0,1,2.25673,1.50449q-.75261,2.25672-1.50449,4.51345a2.327,2.327,0,0,1-2.25673.75225A66.14636,66.14636,0,0,1,196.33532,96.333Z"/>
        <path class="cls-25" d="M66.19735,98.58971h2.25673q.75261,3.00936,1.50448,6.01794H67.70183Q66.94922,101.59829,66.19735,98.58971Z"/>
        <path class="cls-67" d="M54.91371,100.84644a1.43374,1.43374,0,0,1,1.50449,1.12836q4.07791,7.38288-3.76122,4.88958v-2.25673a2.327,2.327,0,0,0,2.25673-.75224A1.90335,1.90335,0,0,1,54.91371,100.84644Z"/>
        <path class="cls-68" d="M45.13456,104.60765a4.30808,4.30808,0,0,0,.75224,2.25673q-.01919,1.72413-1.50449,1.12836a20.15517,20.15517,0,0,1-2.25672-4.88957Q44.705,100.32175,45.13456,104.60765Z"/>
        <path class="cls-69" d="M0,104.60765a15.893,15.893,0,0,1,6.77018.75224,2.743,2.743,0,0,1-.75224,1.12837A24.41974,24.41974,0,0,1,0,106.86438Z"/>
        <path class="cls-70" d="M9.02691,104.60765h6.01794v2.25673H9.02691Z"/>
        <path class="cls-37" d="M17.30158,104.60765a15.893,15.893,0,0,1,6.77018.75224,3.38957,3.38957,0,0,1-3.38509,1.50449Q17.72359,107.37214,17.30158,104.60765Z"/>
        <path class="cls-35" d="M29.33746,104.60765a4.308,4.308,0,0,1,.75224,2.25673H26.32849v-2.25673Z"/>
        <path class="cls-71" d="M35.3554,104.60765h6.01794v2.25673H36.10765A2.15507,2.15507,0,0,1,35.3554,104.60765Z"/>
        <path class="cls-40" d="M45.13456,104.60765a9.86615,9.86615,0,0,1,5.26569.75224,4.48527,4.48527,0,0,1-4.51345,1.50449A4.30808,4.30808,0,0,1,45.13456,104.60765Z"/>
        <path class="cls-72" d="M168.50234,104.60765a1.43374,1.43374,0,0,1,1.50449,1.12836,9.86541,9.86541,0,0,1-3.009,4.88958,3.35273,3.35273,0,0,1-1.50449-1.12836A46.87013,46.87013,0,0,1,168.50234,104.60765Z"/>
        <path class="cls-23" d="M182.04271,104.60765a1.43375,1.43375,0,0,1,1.50449,1.12836,16.27937,16.27937,0,0,1-3.009,5.64182A7.16987,7.16987,0,0,1,182.04271,104.60765Z"/>
        <path class="cls-9" d="M193.32635,105.35989h2.25673a15.81829,15.81829,0,0,1-1.50449,5.2657,2.327,2.327,0,0,1-2.25673.75224Q192.57447,108.36849,193.32635,105.35989Z"/>
        <path class="cls-48" d="M70.7108,106.11214a9.64835,9.64835,0,0,1,3.76122,6.01794Q69.70919,110.77942,70.7108,106.11214Z"/>
        <path class="cls-73" d="M57.92268,109.12111a6.33926,6.33926,0,0,1,3.76121,4.88957q-.37575.56418-.75224,1.12837A7.1485,7.1485,0,0,1,57.92268,109.12111Z"/>
        <path class="cls-74" d="M45.8868,109.87335a4.74627,4.74627,0,0,1,3.38509,3.76121,2.05493,2.05493,0,0,1-1.12836,3.009A8.04388,8.04388,0,0,1,45.8868,109.87335Z"/>
        <path class="cls-52" d="M163.98889,112.13008q1.94643.387,1.12836,2.25672-1.70384,1.92724-3.38509,3.76122a3.35268,3.35268,0,0,1-1.50449-1.12837A36.52588,36.52588,0,0,1,163.98889,112.13008Z"/>
        <path class="cls-47" d="M177.52925,112.88232a2.327,2.327,0,0,1,2.25673.75224,20.09,20.09,0,0,1-3.76121,5.2657,3.35273,3.35273,0,0,1-1.50449-1.12836A29.09192,29.09192,0,0,0,177.52925,112.88232Z"/>
        <path class="cls-28" d="M191.06962,112.88232a2.25918,2.25918,0,0,1,1.50449,1.50448,14.55405,14.55405,0,0,1-3.38509,5.2657,3.3528,3.3528,0,0,1-1.12837-1.50448A26.91242,26.91242,0,0,1,191.06962,112.88232Z"/>
        <path class="cls-75" d="M75.22426,113.63456q4.80908,1.38452,3.76121,6.01794Q75.23254,117.35065,75.22426,113.63456Z"/>
        <path class="cls-9" d="M62.43614,116.64353a2.14944,2.14944,0,0,1,1.8806.75224,10.1347,10.1347,0,0,1,2.63285,5.2657A5.99331,5.99331,0,0,1,62.43614,116.64353Z"/>
        <path class="cls-52" d="M49.648,118.148a7.18764,7.18764,0,0,1,4.51346,4.88957q-1.169,1.82457-2.63285.37613A11.6036,11.6036,0,0,1,49.648,118.148Z"/>
        <path class="cls-9" d="M157.97095,118.90026a2.53241,2.53241,0,0,1,2.25672,1.12836A14.08361,14.08361,0,0,1,154.962,124.166a1.51382,1.51382,0,0,1-.37612-2.25673A6.6478,6.6478,0,0,0,157.97095,118.90026Z"/>
        <path class="cls-69" d="M81.2422,120.40475a6.23742,6.23742,0,0,1,4.88958,3.009,1.61929,1.61929,0,0,1-.75224,2.25672,10.912,10.912,0,0,0-3.76122-3.009A3.7117,3.7117,0,0,1,81.2422,120.40475Z"/>
        <path class="cls-76" d="M173.0158,120.40475q1.94643.387,1.12836,2.25672a5.68632,5.68632,0,0,1-4.13733,3.009A8.50837,8.50837,0,0,1,173.0158,120.40475Z"/>
        <path class="cls-6" d="M185.80392,121.157h2.25673a6.72065,6.72065,0,0,1-3.76121,6.01794q-.37575-.56418-.75224-1.12837A44.00847,44.00847,0,0,1,185.80392,121.157Z"/>
        <path class="cls-34" d="M67.70183,124.166a13.54286,13.54286,0,0,1,5.2657,4.13733,1.61929,1.61929,0,0,1-2.25673.75225A6.23744,6.23744,0,0,1,67.70183,124.166Z"/>
        <path class="cls-77" d="M151.20076,124.166q1.94644.387,1.12837,2.25673a9.46513,9.46513,0,0,1-4.88958,2.63285l-.75224-.75225A34.2224,34.2224,0,0,1,151.20076,124.166Z"/>
        <path class="cls-13" d="M88.01238,125.67044a11.60367,11.60367,0,0,1,5.2657,1.88061,1.59486,1.59486,0,0,1,0,2.63285A7.15069,7.15069,0,0,1,88.01238,125.67044Z"/>
        <path class="cls-78" d="M164.74113,132.44063a2.25965,2.25965,0,0,1-1.50448-1.50449q1.71737-3.6841,5.26569-3.009Q166.59541,130.20534,164.74113,132.44063Z"/>
        <path class="cls-79" d="M180.53823,128.67941H182.795a6.18687,6.18687,0,0,1-4.51345,5.2657A14.66118,14.66118,0,0,1,180.53823,128.67941Z"/>
        <path class="cls-8" d="M96.287,129.43166a35.26418,35.26418,0,0,1,5.2657,2.25672q1.33938,1.494-.75224,2.25673-2.303-.83046-4.51346-1.8806A1.6311,1.6311,0,0,1,96.287,129.43166Z"/>
        <path class="cls-53" d="M142.17385,129.43166a3.6511,3.6511,0,0,1,3.009.75224,8.74556,8.74556,0,0,1-6.01794,3.009,2.327,2.327,0,0,1,.75224-2.25673A5.18857,5.18857,0,0,0,142.17385,129.43166Z"/>
        <path class="cls-17" d="M74.472,130.1839a22.67051,22.67051,0,0,1,4.51345,2.63285q1.50412,2.63245-1.50448,2.25673-1.881-1.881-3.76121-3.76122A1.69947,1.69947,0,0,0,74.472,130.1839Z"/>
        <path class="cls-80" d="M133.89918,132.44063h3.009v2.25672a23.77029,23.77029,0,0,1-6.01794.37613q-1.50411-.75264,0-1.50449A6.62041,6.62041,0,0,0,133.89918,132.44063Z"/>
        <path class="cls-14" d="M103.80948,133.19287a31.39014,31.39014,0,0,1,6.77018.75224v2.25673a25.60077,25.60077,0,0,1-6.01794-1.12836A2.14943,2.14943,0,0,1,103.80948,133.19287Z"/>
        <path class="cls-12" d="M126.37676,133.94511a2.06435,2.06435,0,0,1,2.25673,1.50449,11.04516,11.04516,0,0,1-6.77019,1.50448v-2.25673A7.22788,7.22788,0,0,0,126.37676,133.94511Z"/>
        <path class="cls-81" d="M159.47543,133.94511a2.25966,2.25966,0,0,1,1.50449,1.50449,5.97012,5.97012,0,0,1-4.51346,2.25673A3.242,3.242,0,0,1,159.47543,133.94511Z"/>
        <path class="cls-27" d="M112.83639,134.69735a24.42017,24.42017,0,0,1,6.01794.37613,2.74324,2.74324,0,0,1,.75224,1.12836,8.441,8.441,0,0,1-6.01794.37612A2.14944,2.14944,0,0,1,112.83639,134.69735Z"/>
        <path class="cls-65" d="M175.27253,134.69735q1.94643.387,1.12836,2.25673a10.82149,10.82149,0,0,1-3.76121,3.009q-.56418-.37574-1.12837-.75224Q173.41826,136.93264,175.27253,134.69735Z"/>
        <path class="cls-82" d="M81.2422,135.4496a9.69369,9.69369,0,0,1,6.01794,3.76121Q82.5763,140.19022,81.2422,135.4496Z"/>
        <path class="cls-26" d="M152.70525,137.70633H154.962a2.327,2.327,0,0,1-.75225,2.25672l-4.51345,2.25673a1.51382,1.51382,0,0,1-.37612-2.25673A21.82187,21.82187,0,0,0,152.70525,137.70633Z"/>
        <path class="cls-17" d="M66.19735,138.45857a13.53619,13.53619,0,0,1,6.01794,4.13733,3.35265,3.35265,0,0,1-1.50449,1.12837A6.13862,6.13862,0,0,1,66.19735,138.45857Z"/>
        <path class="cls-7" d="M88.76463,139.96305a8.7456,8.7456,0,0,1,6.01794,3.009,4.65332,4.65332,0,0,1-5.2657-.75224A2.327,2.327,0,0,1,88.76463,139.96305Z"/>
        <path class="cls-18" d="M145.18282,141.46754q2.21837.85192.75225,2.63285a5.582,5.582,0,0,1-5.2657.37612A31.13058,31.13058,0,0,1,145.18282,141.46754Z"/>
        <path class="cls-83" d="M73.71978,143.72427A7.86266,7.86266,0,0,1,78.98547,148.99a9.69365,9.69365,0,0,1-6.01794-3.76121Q73.37714,144.45808,73.71978,143.72427Z"/>
        <path class="cls-84" d="M97.0393,143.72427a8.08539,8.08539,0,0,1,6.77018,2.25672,6.70977,6.70977,0,0,1-6.01794-.37612A2.14938,2.14938,0,0,1,97.0393,143.72427Z"/>
        <path class="cls-85" d="M135.40367,144.47651h3.009v2.25673a10.34916,10.34916,0,0,1-6.77018,0A8.9084,8.9084,0,0,1,135.40367,144.47651Z"/>
        <path class="cls-75" d="M111.33191,145.981a4.149,4.149,0,0,0-2.25673,2.25673q-3.02742.308-3.38509-2.25673A18.08648,18.08648,0,0,1,111.33191,145.981Z"/>
        <path class="cls-86" d="M127.129,145.981a3.7116,3.7116,0,0,1,2.25673.37613q1.50411.75262,0,1.50448a11.0411,11.0411,0,0,1-6.01794,1.12836v-2.25672A5.16173,5.16173,0,0,0,127.129,145.981Z"/>
        <path class="cls-1" d="M160.97992,145.981h2.25673a5.99334,5.99334,0,0,1-6.01795,4.51346,2.327,2.327,0,0,1,.75225-2.25673A5.1627,5.1627,0,0,0,160.97992,145.981Z"/>
        <path class="cls-6" d="M114.34088,146.73324h6.01794V148.99h-6.01794Z"/>
        <path class="cls-87" d="M80.49,148.99a8.7456,8.7456,0,0,1,6.01794,3.009,4.65332,4.65332,0,0,1-5.2657-.75224A2.327,2.327,0,0,1,80.49,148.99Z"/>
        <path class="cls-1" d="M152.70525,150.49445a3.65113,3.65113,0,0,1,3.009.75224,5.89521,5.89521,0,0,1-6.77018,2.25673A17.84287,17.84287,0,0,1,152.70525,150.49445Z"/>
        <path class="cls-88" d="M88.76463,152.75118q5.26721-.40622,6.01794,4.51345H90.26911Q89.5165,155.00791,88.76463,152.75118Z"/>
        <path class="cls-89" d="M145.18282,153.50342q3.75293.52694.75225,2.63285Q135.86443,158.01387,145.18282,153.50342Z"/>
        <path class="cls-7" d="M2.25673,155.00791H8.27467v2.25672H2.25673Z"/>
        <path class="cls-90" d="M11.28364,155.00791h6.01794v2.25672a24.41974,24.41974,0,0,1-6.01794-.37612Q10.04469,156.01967,11.28364,155.00791Z"/>
        <path class="cls-91" d="M19.55831,155.00791h6.77018v2.25672H19.55831Z"/>
        <path class="cls-90" d="M28.58522,155.00791q13.54037,1.12836,0,2.25672Z"/>
        <path class="cls-34" d="M37.61213,155.00791h6.01794v2.25672a24.41974,24.41974,0,0,1-6.01794-.37612Q36.37318,156.01967,37.61213,155.00791Z"/>
        <path class="cls-92" d="M45.8868,155.00791H52.657v2.25672H45.8868Z"/>
        <path class="cls-41" d="M54.91371,155.00791h6.77018v2.25672H54.91371Z"/>
        <path class="cls-93" d="M81.2422,155.00791h6.77018v2.25672H81.2422Z"/>
        <path class="cls-92" d="M97.0393,155.76015a8.08537,8.08537,0,0,1,6.77018,2.25673,8.18823,8.18823,0,0,1-6.01794-.37613A2.14937,2.14937,0,0,1,97.0393,155.76015Z"/>
        <path class="cls-23" d="M134.65143,156.51239h3.76121v2.25673q-3.00935.37575-6.01794.75224v-2.25673A2.15511,2.15511,0,0,0,134.65143,156.51239Z"/>
        <path class="cls-94" d="M115.09312,158.01688a18.75718,18.75718,0,0,1,5.2657.37612,2.74334,2.74334,0,0,1,.75224,1.12836,7.9943,7.9943,0,0,1-6.77018,0Q114.75047,158.75068,115.09312,158.01688Z"/>
        <path class="cls-29" d="M123.36779,158.01688a15.89289,15.89289,0,0,1,6.77018.75224,2.74334,2.74334,0,0,1-.75224,1.12836,24.41922,24.41922,0,0,1-6.01794.37612Z"/>
      </g>
    </g>
  </g>
</svg>
