<svg xmlns="http://www.w3.org/2000/svg" width="185.6108" height="185.02843" viewBox="0 0 185.6108 185.02843">
  <defs>
    <style>
      .cls-1 {
        fill-rule: evenodd;
        opacity: 0.893;
        isolation: isolate;
      }
    </style>
  </defs>
  <title>section1-wheel-outside</title>
  <g id="Capa_2" data-name="Capa 2">
    <g id="Capa_2-2" data-name="Capa 2">
      <path class="cls-1" d="M4.49129,120.36358a4.308,4.308,0,0,0-.75224-2.25673,93.58453,93.58453,0,0,1-.75225-49.648q-4.93433-4.07226,1.50449-5.2657A90.14285,90.14285,0,0,1,28.56305,25.20489a109.03282,109.03282,0,0,0-12.78812-.37612V20.31532q11.28027.46984,22.56728.75224a111.68723,111.68723,0,0,0-1.12837,15.79709,19.18433,19.18433,0,0,1,3.38509-3.009q.37576.56418.75225,1.12837a22.62891,22.62891,0,0,1-4.51346,5.26569,8.41348,8.41348,0,0,0-.75224,3.3851,8.61676,8.61676,0,0,0-4.88958,2.25672q-.56418-.37608-1.12836-.75224a8.18757,8.18757,0,0,0,1.8806-4.51345q.65334-5.67263.75225-11.28364a96.96327,96.96327,0,0,0-22.19116,34.227q2.25673.37573,4.51346.75224,1.363,2.98452-2.25673,2.63285-2.47449-1.1893-3.38509.75224A79.74419,79.74419,0,0,0,5.99578,94.78733H13.5182V88.76939h2.25673v6.01794H27.05857a2.42582,2.42582,0,0,1,1.50448,2.25673,3.49321,3.49321,0,0,1-.75224,2.25673H25.55408a32.434,32.434,0,0,0-9.77915.75224q1.7625,2.70921-.75224,4.51346a13.84471,13.84471,0,0,1-1.50449-5.2657H5.99578A57.26554,57.26554,0,0,0,9.757,118.10685a2.15509,2.15509,0,0,0,.75224,2.25673,71.9396,71.9396,0,0,0,15.04485,27.08074,14.08374,14.08374,0,0,0,5.2657-4.13734,4.30494,4.30494,0,0,1-2.25673-4.13733,3.92342,3.92342,0,0,1,4.13734,3.009q2.63249-2.25674,5.2657-4.51346,1.31679,1.881,2.63284,3.76122a19.27173,19.27173,0,0,1-4.51345,4.51345,8.38286,8.38286,0,0,1,3.009,5.2657,3.71167,3.71167,0,0,1-2.25673-.37612,9.13189,9.13189,0,0,0-2.63285-3.38509q-2.8209,2.06828-5.64182,4.13733A72.65758,72.65758,0,0,0,48.8736,168.131a13.88187,13.88187,0,0,0,4.51346.37612A3.30162,3.30162,0,0,0,54.1393,171.14a86.06665,86.06665,0,0,0,29.33746,8.65079v-6.77019q-7.52279-1.12836,0-2.25672v-9.02691a4.149,4.149,0,0,1,2.25673-2.25673h2.25673a145.32474,145.32474,0,0,0,.75224,20.68667,85.30981,85.30981,0,0,0,56.79432-17.6777,6.59423,6.59423,0,0,0-3.009-4.51346q-3.14364,3.21019-3.009-.75224a7.1115,7.1115,0,0,1,1.8806-1.12836q-3.15151-3.50357-6.01794-7.14631a2.25963,2.25963,0,0,0-1.50448-1.50448q-1.40932-2.628,1.50448-4.13734a2.00721,2.00721,0,0,1,2.25673,1.12837,2.25963,2.25963,0,0,0,1.50449,1.50448A64.18886,64.18886,0,0,0,149.67411,158.728q27.02093-23.95177,30.08971-60.1794-11.66615.11509-23.31952,0V94.03509h4.51345q1.12836,1.5041,2.25673,0h9.02691v-3.009h2.25673v3.009h5.2657q-.04175-40.81969-30.84195-66.94959-5.13066,2.17514-2.25673,6.39406-.37575.56418-.75224,1.12837a11.256,11.256,0,0,1-2.63285-2.25673,80.67513,80.67513,0,0,0-6.39406,6.77018,2.26012,2.26012,0,0,0-1.50449,1.50449,11.05338,11.05338,0,0,0-2.63285,2.25672q-4.12753-2.1511-1.12836-5.26569a.66479.66479,0,0,0,.75224-.75225q6.918-6.35325,13.54037-13.16424A84.284,84.284,0,0,0,95.51265,6.02271v6.77018a2.637,2.637,0,0,1,3.009,1.50448,3.65188,3.65188,0,0,1-3.009.75225v9.77915q-1.50412.75228-3.009,1.50449H90.247a1.217,1.217,0,0,0-.75225-1.50449,63.8652,63.8652,0,0,0-.37612-9.77915,7.42446,7.42446,0,0,1-6.39406,0,2.74331,2.74331,0,0,1,.75224-1.12837,24.40176,24.40176,0,0,1,6.01794-.37612V.00477q59.05068-.49851,86.884,51.15249Q199.869,105.8389,163.5906,152.71q-41.2654,43.8426-99.67214,28.2091A100.53108,100.53108,0,0,1,42.85566,171.14a13.88126,13.88126,0,0,0-4.51345-.37612,3.30162,3.30162,0,0,1,.75224-2.63285A86.1184,86.1184,0,0,1,4.49129,120.36358ZM87.238,50.405H98.52162v9.02691a28.1718,28.1718,0,0,1,13.54036,5.2657,72.2188,72.2188,0,0,0,6.39406-6.01794q4.15465,3.96619,7.89855,8.27467-2.63249,3.00935-5.2657,6.01794a39.13742,39.13742,0,0,1,5.2657,13.54036h8.27467V98.54855a22.32514,22.32514,0,0,0-7.89855.75224,29.65749,29.65749,0,0,1-4.88957,12.412,48.36321,48.36321,0,0,0,5.26569,4.88958,44.90406,44.90406,0,0,1-7.89854,9.02691q-2.63249-2.63247-5.2657-5.2657a38.73953,38.73953,0,0,1-15.421,6.77019v7.52242H86.48573a19.46675,19.46675,0,0,0-.75224-7.52242,34.98812,34.98812,0,0,1-13.16424-6.01795q-2.63248,2.63247-5.2657,5.2657l-7.52243-7.52242a.94.94,0,0,1,0-1.50449,35.05944,35.05944,0,0,0,4.13734-4.51345,35.25794,35.25794,0,0,1-5.2657-14.29261H51.13033V87.26491a11.8976,11.8976,0,0,0,7.89855-1.50449,28.42534,28.42534,0,0,1,4.88958-11.28364q-2.63249-3.00935-5.2657-6.01794a29.572,29.572,0,0,1,7.52242-8.27467q3.00935,2.63248,6.01794,5.2657a45.85591,45.85591,0,0,1,14.29261-6.39406A26.56564,26.56564,0,0,0,87.238,50.405Z"/>
    </g>
  </g>
</svg>
