<?xml version="1.0" encoding="utf-8"?>
<!-- Generator: Adobe Illustrator 24.0.0, SVG Export Plug-In . SVG Version: 6.00 Build 0)  -->
<svg version="1.1" id="Capa_1" xmlns="http://www.w3.org/2000/svg" xmlns:xlink="http://www.w3.org/1999/xlink" x="0px" y="0px"
	 viewBox="0 0 1435.5 205.6" style="enable-background:new 0 0 1435.5 205.6;" xml:space="preserve">
  <defs>
    <style>
      .cls-1 {
        fill: #ff9500;
      }

      .cls-2 {
        fill: #1c1c1c;
      }
    </style>
  </defs>
  <title>section1-frontend2</title>
  <g id="Capa_2" data-name="Capa 2">
    <g id="Capa_1-2" data-name="Capa 1">
      <g id="Capa_2-2" data-name="Capa 2">
        <g id="Capa_1-2-2" data-name="Capa 1-2">
          <g>
            <path class="cls-1" d="M53,205H0V3H119V47H53V85h61v44H53Z"/>
            <path class="cls-1" d="M193,132v73H138V3h66.7q82.95,0,83,59.7,0,35.1-34.5,54.3l59.3,88H249.3l-42.5-73Zm0-41h10.2q28.5,0,28.5-25.2c0-13.9-9.3-20.8-28-20.8H193Z"/>
            <path class="cls-1" d="M504.4,103.9q0,51-25,77.5-25.05,26.55-73.2,26.5-47.55,0-72.9-26.7c-16.9-17.8-25.3-43.6-25.3-77.6q0-50.4,25.2-77Q358.4.05,406.5,0q48.15,0,73.1,26.4Q504.35,52.8,504.4,103.9Zm-138.9,0c0,39,13.6,58.6,40.7,58.6,13.8,0,24.1-4.7,30.7-14.2,6.7-9.5,10-24.3,10-44.3q0-30.3-10.2-44.7T406.4,44.9q-40.95-.15-40.9,59Z"/>
            <path class="cls-1" d="M719,205H646.9L573.7,63h-1.2c1.7,22.3,2.6,39.4,2.6,51.1V205h-48V3h71.4l73.7,140h.8c-1.3-20.3-1.9-36.6-1.9-48.9V3h48V205Z"/>
            <path class="cls-1" d="M838,205H783V48H734V3H887V48H838Z"/>
            <path class="cls-1" d="M1021,205H901V3h120V47H956V79h60v44H956v38h65Z"/>
            <path class="cls-1" d="M1235,205h-70.6L1089.6,63h-1.30005c1.80005,22.3,2.7,39.4,2.7,51.1V205h-49V3h71.4l73.7,140h.8c-1.3-20.3-1.9-36.6-1.9-48.9V3h49V205Z"/>
            <path class="cls-1" d="M1435.5,99.7q0,50.55-27.80005,77.9C1389.1,195.8,1363,205,1329.3999,205H1264V3h69.9c32.4,0,57.5,8.3,75.1,24.9S1435.5,68.4,1435.5,99.7ZM1379.2,101.5c0-18.5-3.69995-32.2-11-41.1s-18.4-13.4-33.30005-13.4H1319V160h12.1c16.6,0,28.69995-4.8,36.4-14.4q11.70008-14.4,11.69995-44.1Z"/>
          </g>
        </g>
      </g>
      <g>
        <path class="cls-2" d="M706.65283,124.22422h3.73242v.59765h-8.5664v-2.03906a3.8416,3.8416,0,0,1,.58886-2.35547,2.10071,2.10071,0,0,1,1.77247-.76172,2.31621,2.31621,0,0,1,1.45312.45411,2.52433,2.52433,0,0,1,.84961,1.37988l3.90234-2.32617v.71484l-3.73242,2.209Zm-.51562,0v-1.63477a2.60882,2.60882,0,0,0-.4834-1.68164,1.72665,1.72665,0,0,0-1.42676-.59765,1.67375,1.67375,0,0,0-1.42383.58593,3.19848,3.19848,0,0,0-.44531,1.91016v1.418Z"/>
        <path class="cls-2" d="M706.09033,110.48984a4.78486,4.78486,0,0,1,3.22559,1.01953,3.91967,3.91967,0,0,1,0,5.61915,4.80351,4.80351,0,0,1-3.23731,1.01953,4.72114,4.72114,0,0,1-3.21972-1.02832,3.541,3.541,0,0,1-1.17481-2.80957,3.50214,3.50214,0,0,1,1.18067-2.80664A4.78907,4.78907,0,0,1,706.09033,110.48984Zm0,7.00782a4.38794,4.38794,0,0,0,2.84473-.82032,3.28336,3.28336,0,0,0,.00879-4.71972,4.39248,4.39248,0,0,0-2.85352-.81739,4.34506,4.34506,0,0,0-2.83887.81739,3.29321,3.29321,0,0,0,.00879,4.71093A4.30844,4.30844,0,0,0,706.09033,117.49766Z"/>
        <path class="cls-2" d="M701.81885,108.52109v-2.34961a4.01241,4.01241,0,0,1,.53906-2.332,1.87922,1.87922,0,0,1,1.62891-.74414,1.76359,1.76359,0,0,1,1.23925.4541,2.2132,2.2132,0,0,1,.63575,1.32715h.03515a2.58585,2.58585,0,0,1,.64746-1.50879,1.89166,1.89166,0,0,1,1.37989-.4834,2.21437,2.21437,0,0,1,1.82226.78516,3.44385,3.44385,0,0,1,.63867,2.22656v2.625Zm3.81445-.59765v-1.88672a3.00988,3.00988,0,0,0-.40137-1.75488,1.45392,1.45392,0,0,0-1.25683-.54786,1.35515,1.35515,0,0,0-1.24219.61817,3.5236,3.5236,0,0,0-.38672,1.84277v1.72852Zm.52734,0h3.69727v-2.01563q0-2.37891-1.93359-2.3789-1.76367,0-1.76368,2.50781Z"/>
        <path class="cls-2" d="M710.38525,96.316v4.68164h-8.5664V96.316h.55078V100.4h3.24023V96.54453h.55078V100.4h3.67383V96.316Z"/>
        <path class="cls-2" d="M706.65283,93.77891h3.73242v.59765h-8.5664V92.3375a3.84158,3.84158,0,0,1,.58886-2.35547,2.10071,2.10071,0,0,1,1.77247-.76172,2.31626,2.31626,0,0,1,1.45312.4541,2.5244,2.5244,0,0,1,.84961,1.37989l3.90234-2.32618V89.443l-3.73242,2.209Zm-.51562,0V92.14414a2.6088,2.6088,0,0,0-.4834-1.68164,1.72665,1.72665,0,0,0-1.42676-.59766,1.67376,1.67376,0,0,0-1.42383.58594,3.19846,3.19846,0,0,0-.44531,1.91016v1.418Z"/>
        <path class="cls-2" d="M710.38525,85.01328v.60352h-8.0039V88.4h-.5625V82.23008h.5625v2.7832Z"/>
        <path class="cls-2" d="M706.09033,73.75742a4.78486,4.78486,0,0,1,3.22559,1.01953,3.91966,3.91966,0,0,1,0,5.61914,4.80346,4.80346,0,0,1-3.23731,1.01953,4.72109,4.72109,0,0,1-3.21972-1.02832,3.54093,3.54093,0,0,1-1.17481-2.80957,3.50216,3.50216,0,0,1,1.18067-2.80664A4.78911,4.78911,0,0,1,706.09033,73.75742Zm0,7.00781a4.38793,4.38793,0,0,0,2.84473-.82031,3.28336,3.28336,0,0,0,.00879-4.71972,4.39243,4.39243,0,0,0-2.85352-.81739,4.345,4.345,0,0,0-2.83887.81739,3.29321,3.29321,0,0,0,.00879,4.71093A4.30844,4.30844,0,0,0,706.09033,80.76523Z"/>
        <path class="cls-2" d="M708.17627,63.943a2.05631,2.05631,0,0,1,1.69922.78808,3.2681,3.2681,0,0,1,.62695,2.09473,6.56154,6.56154,0,0,1-.3457,2.4082h-.59766a6.09324,6.09324,0,0,0,.39258-2.36132,2.64576,2.64576,0,0,0-.4834-1.67286,1.53345,1.53345,0,0,0-1.26855-.61816,1.46411,1.46411,0,0,0-.80567.20508,1.87075,1.87075,0,0,0-.583.668,8.23607,8.23607,0,0,0-.56836,1.35937,4.65312,4.65312,0,0,1-.97559,1.81348,2.09017,2.09017,0,0,1-2.96484-.25195,2.99012,2.99012,0,0,1-.60645-1.93653,5.6681,5.6681,0,0,1,.457-2.26758l.51563.2168a5.28914,5.28914,0,0,0-.44532,2.03906,2.39086,2.39086,0,0,0,.43946,1.51172,1.43569,1.43569,0,0,0,1.19531.5625,1.56592,1.56592,0,0,0,.7793-.17285,1.58907,1.58907,0,0,0,.54785-.56543,7.74176,7.74176,0,0,0,.583-1.34766,7.26543,7.26543,0,0,1,.67089-1.50585,2.1524,2.1524,0,0,1,.73829-.73536A2.015,2.015,0,0,1,708.17627,63.943Z"/>
        <path class="cls-2" d="M710.38525,59.9v.60352h-8.0039v2.7832h-.5625V57.1168h.5625V59.9Z"/>
        <path class="cls-2" d="M706.65283,55.24766h3.73242v.59765h-8.5664V53.80625a3.84158,3.84158,0,0,1,.58886-2.35547,2.10071,2.10071,0,0,1,1.77247-.76172,2.31626,2.31626,0,0,1,1.45312.4541,2.5244,2.5244,0,0,1,.84961,1.37989l3.90234-2.32618v.71485l-3.73242,2.209Zm-.51562,0V53.61289a2.6088,2.6088,0,0,0-.4834-1.68164,1.72665,1.72665,0,0,0-1.42676-.59766,1.67376,1.67376,0,0,0-1.42383.58594,3.19846,3.19846,0,0,0-.44531,1.91016v1.418Z"/>
        <path class="cls-2" d="M710.38525,48.71445h-8.5664V48.1168h8.5664Z"/>
        <path class="cls-2" d="M710.38525,39.4625V40.066l-7.60546,5.07421v.04688q1.35938-.07032,2.05078-.07031h5.55468V45.691h-8.5664v-.59766L709.4126,40.025v-.03516q-1.05469.05274-2.00391.05274h-5.58984V39.4625Z"/>
        <path class="cls-2" d="M706.06689,33.66758V30.50937h3.90821a7.08791,7.08791,0,0,1,.52734,2.79493,4.06919,4.06919,0,0,1-1.14551,3.1084,4.54284,4.54284,0,0,1-3.24316,1.081,4.8704,4.8704,0,0,1-2.31738-.53613,3.75566,3.75566,0,0,1-1.56153-1.53516,4.6729,4.6729,0,0,1-.55078-2.29394,5.91322,5.91322,0,0,1,.51563-2.51368l.53906.24024a5.43374,5.43374,0,0,0-.51563,2.30859,3.52894,3.52894,0,0,0,1.0459,2.68653,3.92862,3.92862,0,0,0,2.82129.99316A4.03226,4.03226,0,0,0,708.99951,35.9a3.68264,3.68264,0,0,0,.97559-2.77148,5.36839,5.36839,0,0,0-.334-2.00977h-3.01172v2.54883Z"/>
        <path class="cls-2" d="M707.36182,24.234v3.48047l3.02343,1.19532v.6621l-8.60156-3.44531V25.7457l8.60156-3.375v.67383Zm-.53907,3.26368V24.4332l-3.08789,1.166q-.36327.14648-1.00781.35156a9.3966,9.3966,0,0,1,1.01953.3457Z"/>
      </g>
    </g>
  </g>
</svg>
